<?xml version="1.0" standalone="no"?>
<!DOCTYPE svg PUBLIC "-//W3C//DTD SVG 20010904//EN"
 "http://www.w3.org/TR/2001/REC-SVG-20010904/DTD/svg10.dtd">
<svg version="1.0" xmlns="http://www.w3.org/2000/svg"
 width="70.000000pt" height="70.000000pt" viewBox="0 0 70.000000 70.000000"
 preserveAspectRatio="xMidYMid meet">
<metadata>
Created by potrace 1.11, written by Peter Selinger 2001-2013
</metadata>
<g transform="translate(0.000000,70.000000) scale(0.100000,-0.100000)"
fill="#000000" stroke="none">
<path d="M23 421 l0 -259 33 -37 c18 -20 30 -43 27 -51 -6 -17 -23 -8 -23 12
0 8 -9 14 -20 14 -23 0 -28 -38 -8 -58 17 -17 77 -15 84 3 4 8 10 12 15 9 5
-3 7 -10 4 -15 -4 -5 5 -9 19 -9 22 0 25 5 28 43 3 44 22 50 24 7 1 -14 2 -31
3 -37 0 -7 10 -13 21 -13 18 0 20 7 20 87 0 47 3 83 7 79 4 -4 6 -32 5 -63 -2
-70 16 -103 57 -103 41 0 50 16 54 100 l3 75 2 -87 c2 -85 3 -88 26 -88 20 0
23 5 22 32 -1 28 4 35 33 50 20 10 36 18 36 18 1 0 1 -21 1 -47 -1 -42 2 -48
22 -51 21 -3 22 -1 22 82 0 78 2 86 19 86 17 0 18 -5 11 -37 -4 -21 -11 -59
-15 -86 -6 -43 -4 -47 14 -47 12 0 21 7 21 15 0 8 9 15 20 15 11 0 20 -7 20
-15 0 -8 9 -15 20 -15 24 0 25 9 5 119 -10 56 -11 89 -5 101 14 26 13 346 -1
373 -22 42 -46 57 -91 56 -36 0 -47 -5 -68 -32 -24 -30 -25 -38 -28 -193 -3
-147 -2 -167 17 -209 24 -55 27 -73 5 -32 -8 15 -21 27 -29 27 -12 0 -15 14
-15 60 0 33 -7 76 -14 95 -13 31 -13 39 0 70 22 54 18 136 -9 176 -22 33 -25
34 -100 37 l-77 3 0 -219 c0 -204 -1 -220 -18 -224 -14 -4 -18 -14 -16 -47 1
-29 -3 -41 -12 -41 -10 0 -14 14 -14 45 0 41 -2 45 -25 45 -14 0 -24 -3 -24
-7 1 -5 1 -15 0 -23 -3 -35 -29 29 -31 75 -3 84 -3 85 29 85 41 0 79 34 87 78
17 84 4 184 -26 205 -11 8 -17 17 -13 20 3 4 -30 7 -74 7 l-79 0 -1 -259z
m118 172 c14 -94 6 -143 -21 -143 -18 0 -20 7 -20 75 0 68 2 75 20 75 11 0 20
-3 21 -7z m218 -15 c16 -43 -2 -121 -27 -116 -13 3 -17 16 -17 71 -1 58 2 67
17 67 10 0 22 -10 27 -22z m219 5 c12 -24 9 -290 -4 -303 -5 -5 -15 -6 -23 -1
-11 7 -14 41 -15 147 -1 134 4 174 24 174 5 0 13 -8 18 -17z m-222 -214 c3 -6
7 -41 8 -78 l2 -68 -25 13 c-23 12 -26 19 -26 79 -1 55 2 65 17 65 9 0 20 -5
24 -11z m-248 -196 c6 -2 12 2 12 7 0 6 3 10 8 10 4 0 7 -22 7 -49 0 -27 -1
-49 -1 -48 -54 64 -73 91 -67 99 4 7 10 6 17 -3 6 -8 17 -15 24 -16z m222 -37
c0 -36 -4 -68 -10 -71 -6 -4 -10 20 -10 64 0 41 4 71 10 71 6 0 10 -28 10 -64z
m118 37 c-4 -37 -24 -40 -23 -3 0 18 5 30 13 30 9 0 12 -10 10 -27z m172 -60
c0 -7 -4 -13 -10 -13 -5 0 -10 12 -10 28 0 21 2 24 10 12 5 -8 10 -21 10 -27z"/>
</g>
</svg>
